<svg width="23" height="20" viewBox="0 0 23 20" fill="none" xmlns="http://www.w3.org/2000/svg">
<path d="M21.0833 0H1.91667C0.858507 0 0 0.839844 0 1.875V14.375C0 15.4102 0.858507 16.25 1.91667 16.25H9.58333L8.94444 18.125H6.06944C5.53837 18.125 5.11111 18.543 5.11111 19.0625C5.11111 19.582 5.53837 20 6.06944 20H16.9306C17.4616 20 17.8889 19.582 17.8889 19.0625C17.8889 18.543 17.4616 18.125 16.9306 18.125H14.0556L13.4167 16.25H21.0833C22.1415 16.25 23 15.4102 23 14.375V1.875C23 0.839844 22.1415 0 21.0833 0ZM20.4444 13.75H2.55556V2.5H20.4444V13.75Z" fill="#494949"/>
</svg>
